<svg clip-rule="evenodd" fill-rule="evenodd" stroke-linejoin="round" stroke-miterlimit="2" viewBox="0 0 560 400" xmlns="http://www.w3.org/2000/svg"><g fill-rule="nonzero" transform="matrix(1.44345 0 0 1.44345 -613.817 -100.619)"><g fill="#004a7f"><path d="m519.172 238.815h10.63l8.333-31.058h-10.521z"/><path d="m573.671 238.815h10.631l8.333-31.058h-10.63z"/><path d="m628.27 238.815h10.526l8.235-31.058h-10.63z"/><path d="m563.77 218.388h10.631c1.458-6.98-3.021-10.521-13.443-10.521-12.089 0-20.214 5.937-23.026 16.047-2.401 9.375 2.5 15.005 13.854 15.005 11.464 0 18.234-3.542 21.052-11.568h-10.63c-1.563 3.542-4.271 5.313-8.021 5.313-5.109 0-7.193-3.125-5.63-9.063 1.667-6.151 5.63-9.588 10.734-9.588 3.334 0 4.792 1.458 4.479 4.375"/><path d="m618.375 218.388h10.63c1.458-6.98-3.13-10.521-13.552-10.521-11.985 0-20.214 5.937-22.922 16.047-2.5 9.375 2.396 15.005 13.755 15.005s18.13-3.542 21.047-11.568h-10.625c-1.464 3.542-4.276 5.313-8.026 5.313-5.104 0-7.188-3.125-5.526-9.063 1.568-6.151 5.526-9.588 10.63-9.588 3.339 0 4.901 1.458 4.589 4.375"/></g><path d="m478.218 190.57c14.172-14.068 31.365-17.719 38.245-8.13 6.88 9.588.834 28.968-13.338 43.036-14.172 14.172-31.365 17.818-38.349 8.125-6.771-9.687-.724-28.969 13.442-43.031" fill="#f06321"/><path d="m487.599 183.065c-1.563 1.145-3.125 2.5-4.688 3.963-12.401 12.292-17.615 29.172-11.463 37.615 6.354 8.437 21.567 5.312 34.281-7.089 6.88-6.666 11.463-14.38 13.338-21.567.521-5.313-.208-10.006-2.604-13.547-5.416-7.5-17.088-6.881-28.864.625" fill="#ae282e"/><path d="m505.52 184.627v.313c-.103 1.77-1.145 3.958-3.02 5.833-2.813 2.708-6.563 3.75-8.131 2.193-1.77-1.667-.724-5.318 2.089-8.235 2.917-2.812 6.667-3.75 8.229-2.083.521.521.833 1.146.833 1.979m-10.833 47.828c-6.672 5-13.547 7.505-20.219 6.464 2.813.104 5.11-3.026 6.985-7.193 1.875-4.271 2.916-8.229 3.854-11.984 1.354-5.938 1.458-10.104.729-11.042-1.146-1.464-3.646-1.146-6.568.521-1.458.833-3.333.312-1.14-2.396 2.291-2.708 11.146-9.172 14.271-10.214 3.546-.937 7.505.417 6.151 4.271-.943 2.813-13.235 34.907-4.063 31.573" fill="#fff"/><path d="m662.974 233.914 2.395-8.959h5.834v-4.791h-4.479l2.083-7.61h2.396v-4.692h-7.922l-8.229 31.057h16.151v-5.005zm8.229-8.959h1.146c5.317 0 7.817.938 6.776 4.584-.834 3.229-3.438 4.375-7.922 4.375v5.005c4.38 0 7.609-.417 10.838-2.61 2.188-1.458 3.756-3.645 4.38-6.145 1.141-4.271-.734-7.193-5.63-7.813 4.584-.833 7.506-3.234 8.438-6.984.833-2.813.104-4.896-1.875-6.25-1.667-1.146-4.479-1.255-8.229-1.255h-7.922v4.692h4.067c5 0 7.292.625 6.563 3.75-.938 3.021-3.646 3.86-8.75 3.86h-1.88z" fill="#004a7f"/><path d="m700.38 217.143v3.849c-.834.422-1.563 1.151-1.875 2.192h-6.25c1.036-3.02 3.854-5.109 8.125-6.041m0 18.234c-.729.208-1.563.313-2.396.313-2.812 0-4.062-1.151-3.438-3.235.626-2.396 2.5-3.229 5.834-3.541v-3.646c-7.193.521-11.151 2.396-12.401 7.083-1.146 4.271 1.568 7.089 7.193 7.089 1.874 0 3.645-.313 5.208-.938zm6.047-6.463-.105.312c-.833 3.229-3.026 5.422-5.942 6.151v3.125c1.562-.63 2.916-1.458 4.166-2.604l-.52 3.021h6.255c.312-1.464.625-3.13 1.041-4.797l2.396-8.75c.209-.729.313-1.458.313-2.188v-1.041c-.208-3.547-3.229-5.422-8.854-5.422-1.776 0-3.339.208-4.797.422v3.849c.937-.516 2.083-.724 3.547-.724 3.224 0 4.479 1.453 3.536 4.583l-.099.313h-3.338c-1.245 0-2.5.104-3.646.104v3.646z" fill="#004a7f"/><path d="m715.906 238.919h6.359l3.021-11.151c1.042-3.959 4.688-6.776 8.542-6.776 3.75 0 5.109 2.192 3.859 6.567l-3.026 11.36h6.359l3.542-13.235c1.458-5.625-1.354-8.963-7.604-8.963-4.068 0-7.297 1.458-10.109 4.375l.729-3.854h-6.354c-.625 3.437-1.042 5.526-1.256 6.359z" fill="#004a7f"/><path d="m746.645 238.919h6.256l3.125-11.672 8.442 11.672h8.646l-9.588-12.401 12.922-9.276h-8.021l-11.985 8.651 4.792-18.026h-6.25z" fill="#004a7f"/></g></svg>